Coordinates
version=1
nRows=38
nColumns=12
inDegrees=yes

Units are S.I. units (second, meters, Newtons, ...)
Angles are in degrees

endheader
time	SC_y	SC_z	SC_x	AC_y	AC_z	AC_x	GH_y	GH_z	GH_yy	EL_x	PS_y
       0.0              -19.48          16.94          45.57          61.27         -2.461          8.093          177.7         -19.44         -97.86          73.55          139.3
   0.01224              -19.48          16.94          45.57          61.27         -2.463          8.089          177.7         -19.43         -97.83          73.54          139.3
   0.02448              -19.49          16.93          45.57          61.26         -2.465          8.085          177.7         -19.42          -97.8          73.53          139.3
   0.03671              -19.49          16.93          45.57          61.26         -2.468          8.081          177.7          -19.4         -97.76          73.52          139.3
   0.04895              -19.49          16.93          45.57          61.26          -2.47          8.076          177.7         -19.39         -97.73          73.51          139.2
   0.06119               -19.5          16.93          45.58          61.25         -2.473          8.071          177.7         -19.37         -97.69           73.5          139.2
   0.07343               -19.5          16.93          45.58          61.25         -2.475          8.066          177.7         -19.36         -97.65          73.48          139.2
   0.08567              -19.51          16.92          45.58          61.25         -2.478           8.06          177.6         -19.34         -97.61          73.47          139.2
    0.0979              -19.51          16.92          45.58          61.25         -2.481          8.054          177.6         -19.32         -97.56          73.46          139.1
    0.1101              -19.52          16.92          45.58          61.24         -2.484          8.048          177.6          -19.3         -97.51          73.44          139.1
    0.1224              -19.52          16.92          45.59          61.24         -2.488          8.041          177.6         -19.28         -97.46          73.43          139.1
    0.1346              -19.53          16.91          45.59          61.23         -2.492          8.033          177.6         -19.25          -97.4          73.41          139.0
    0.1469              -19.53          16.91          45.59          61.23         -2.496          8.025          177.5         -19.23         -97.34          73.39          139.0
    0.1591              -19.54          16.91           45.6          61.22           -2.5          8.016          177.5          -19.2         -97.28          73.37          139.0
    0.1713              -19.55           16.9           45.6          61.22         -2.505          8.007          177.5         -19.17          -97.2          73.35          138.9
    0.1836              -19.55           16.9           45.6          61.21          -2.51          7.996          177.5         -19.14         -97.13          73.32          138.9
    0.1958              -19.56           16.9          45.61          61.21         -2.516          7.985          177.4          -19.1         -97.04           73.3          138.8
     0.208              -19.57          16.89          45.61           61.2         -2.522          7.973          177.4         -19.07         -96.95          73.27          138.8
    0.2203              -19.58          16.88          45.62          61.19         -2.528          7.959          177.4         -19.02         -96.85          73.24          138.7
    0.2325              -19.59          16.88          45.62          61.18         -2.536          7.945          177.3         -18.98         -96.74           73.2          138.6
    0.2448              -19.61          16.87          45.63          61.17         -2.544          7.929          177.3         -18.93         -96.62          73.17          138.6
     0.257              -19.62          16.87          45.63          61.16         -2.552          7.911          177.2         -18.87         -96.49          73.13          138.5
    0.2692              -19.63          16.86          45.64          61.15         -2.562          7.892          177.2         -18.81         -96.34          73.08          138.4
    0.2815              -19.65          16.85          45.65          61.14         -2.573           7.87          177.1         -18.74         -96.18          73.03          138.3
    0.2937              -19.67          16.84          45.66          61.13         -2.585          7.846          177.1         -18.67          -96.0          72.98          138.2
     0.306              -19.69          16.83          45.67          61.11         -2.598          7.819          177.0         -18.59          -95.8          72.91          138.0
    0.3182              -19.71          16.82          45.68          61.09         -2.613          7.789          176.9         -18.49         -95.57          72.84          137.9
    0.3304              -19.74           16.8          45.69          61.08          -2.63          7.755          176.8         -18.39         -95.32          72.77          137.8
    0.3427              -19.77          16.79           45.7          61.05         -2.649          7.717          176.7         -18.27         -95.04          72.68          137.6
    0.3549               -19.8          16.77          45.72          61.03         -2.671          7.674          176.6         -18.13         -94.71          72.58          137.4
    0.3671              -19.84          16.75          45.74           61.0         -2.696          7.624          176.5         -17.97         -94.34          72.46          137.1
    0.3794              -19.88          16.73          45.76          60.97         -2.724          7.568          176.3          -17.8         -93.91          72.33          136.9
    0.3916              -19.93           16.7          45.78          60.93         -2.757          7.502          176.1         -17.59         -93.42          72.18          136.6
    0.4039              -19.99          16.67          45.81          60.89         -2.795          7.426          175.9         -17.35         -92.85           72.0          136.2
    0.4161              -20.06          16.64          45.84          60.84         -2.839          7.337          175.7         -17.07         -92.18           71.8          135.8
    0.4283              -20.14           16.6          45.88          60.78         -2.892          7.232          175.4         -16.74          -91.4          71.55          135.3
    0.4406              -20.23          16.55          45.92          60.71         -2.954          7.107          175.0         -16.35         -90.46          71.26          134.8
    0.4528              -20.35          16.49          45.98          60.62         -3.029          6.957          174.6         -15.89         -89.34          70.92          134.1
